
<?xml version="1.0" encoding="UTF-8"?>
<svg xmlns="http://www.w3.org/2000/svg" viewBox="0 0 261.06 52.4">
    <defs><style>.doologo {fill: #162229}</style></defs>
    <title>Doothemes</title>
    <g>
    <path class="doologo" d="M416.48,314q.22,1.87,1.22,2.05a3,3,0,0,0,2.27-.72,10.11,10.11,0,0,0,2.45-2.7,14.91,14.91,0,0,0,1.84-4,1.19,1.19,0,0,1,.58,0,.83.83,0,0,1,.65.79,20.19,20.19,0,0,1-1.12,5.18,16.51,16.51,0,0,1-2.41,4.5,11.61,11.61,0,0,1-3.67,3.17,10.14,10.14,0,0,1-5,1.19,4.15,4.15,0,0,1-4-2.27,13,13,0,0,1-1.19-6q-1.73,3-2.92,4.61a11.19,11.19,0,0,1-2.3,2.48,5.2,5.2,0,0,1-2.41,1,23.45,23.45,0,0,1-3.17.18,4.28,4.28,0,0,1-.61,0l-.61-.11a4.86,4.86,0,0,1-2.59-2.27,10.26,10.26,0,0,1-1.44-4.36,26,26,0,0,1,.25-6.44,50,50,0,0,1,1.66-7.2,51.52,51.52,0,0,1,2.66-6.91,35.14,35.14,0,0,1,3.28-5.65,7.39,7.39,0,0,1,3.2-2.63,6.65,6.65,0,0,1,3.53-.4,9.81,9.81,0,0,1,3.49,1.33,13.75,13.75,0,0,1,3.1,2.56q1-3.1,2.05-5.94t2-5.26q.93-2.41,1.69-4.25t1.19-2.92a12.35,12.35,0,0,1,5.08-1,9.08,9.08,0,0,1,4.36,1,69.66,69.66,0,0,0-3.85,8q-1.91,4.61-3.64,9.9T419,301.88q-1.4,5.65-2.34,11.05A6,6,0,0,0,416.48,314Zm-16.34-1.15a1.75,1.75,0,0,0,.65,1q.36.18,1.58-.54a36.29,36.29,0,0,0,4.5-5.44q1.91-2.84,3.13-5,.29-1.3.61-2.59t.68-2.59q-1.51-2.66-3-2.81a3.38,3.38,0,0,0-2.77,1.22,12.89,12.89,0,0,0-2.41,3.82,41.68,41.68,0,0,0-1.84,5,34.35,34.35,0,0,0-1.08,4.79A9.32,9.32,0,0,0,400.14,312.86Z" transform="translate(-391.97 -271.14)"/>
    <path class="doologo" d="M451.54,305.52a49.68,49.68,0,0,1-2,6.48,27.16,27.16,0,0,1-2.88,5.58,16.17,16.17,0,0,1-3.89,4.07,9.47,9.47,0,0,1-4.86,1.8,18.44,18.44,0,0,1-5.83-.29,9.07,9.07,0,0,1-3.74-1.8,12,12,0,0,1-4.36-5,12.42,12.42,0,0,1-.76-7.7,59,59,0,0,1,1.8-7.45,30.61,30.61,0,0,1,2.92-6.66,18,18,0,0,1,4.14-4.86,9.53,9.53,0,0,1,5.4-2.12,17.78,17.78,0,0,1,5.58.43,13.45,13.45,0,0,1,4.64,2.09,11.12,11.12,0,0,1,3.24,3.6,11.24,11.24,0,0,1,1.37,5,9.28,9.28,0,0,0,1.87-.72q1-.5,2-1.08a21.72,21.72,0,0,0,1.91-1.22,19.39,19.39,0,0,0,1.55-1.22,1.78,1.78,0,0,1,1,.76,5.23,5.23,0,0,1,.68,1.37,5.51,5.51,0,0,1,.29,1.44,1.86,1.86,0,0,1-.18,1Q460.4,300,459,301t-2.74,1.84q-1.37.86-2.63,1.55T451.54,305.52Zm-13.25.94a8.28,8.28,0,0,1-2.16-1.58,12.83,12.83,0,0,0,3.74-3.13,9.27,9.27,0,0,0,1.69-3.2,4.11,4.11,0,0,0,0-2.59,2.15,2.15,0,0,0-1.44-1.37,2.23,2.23,0,0,0-1.73.32,7.09,7.09,0,0,0-2,2.05,21.21,21.21,0,0,0-2.16,4.1,43.11,43.11,0,0,0-2,6.55,8.12,8.12,0,0,0,.07,5.18,6.06,6.06,0,0,0,2.74,3,4.71,4.71,0,0,0,3,0,6.62,6.62,0,0,0,2.59-1.66,12,12,0,0,0,2.09-2.88,23.69,23.69,0,0,0,1.55-3.64,10.93,10.93,0,0,1-2.52,0,9,9,0,0,1-1.87-.43A6.26,6.26,0,0,1,438.3,306.45Z" transform="translate(-391.97 -271.14)"/>
    <path class="doologo" d="M482.14,305.52a49.68,49.68,0,0,1-2,6.48,27.16,27.16,0,0,1-2.88,5.58,16.17,16.17,0,0,1-3.89,4.07,9.47,9.47,0,0,1-4.86,1.8,18.44,18.44,0,0,1-5.83-.29,9.07,9.07,0,0,1-3.74-1.8,12,12,0,0,1-4.36-5,12.42,12.42,0,0,1-.76-7.7,59,59,0,0,1,1.8-7.45,30.61,30.61,0,0,1,2.92-6.66,18,18,0,0,1,4.14-4.86,9.53,9.53,0,0,1,5.4-2.12,17.78,17.78,0,0,1,5.58.43,13.45,13.45,0,0,1,4.64,2.09,11.12,11.12,0,0,1,3.24,3.6,11.24,11.24,0,0,1,1.37,5,9.28,9.28,0,0,0,1.87-.72q1-.5,2-1.08a21.72,21.72,0,0,0,1.91-1.22,19.39,19.39,0,0,0,1.55-1.22,1.78,1.78,0,0,1,1,.76,5.23,5.23,0,0,1,.68,1.37,5.51,5.51,0,0,1,.29,1.44,1.86,1.86,0,0,1-.18,1Q491,300,489.63,301t-2.74,1.84q-1.37.86-2.63,1.55T482.14,305.52Zm-13.25.94a8.28,8.28,0,0,1-2.16-1.58,12.83,12.83,0,0,0,3.74-3.13,9.27,9.27,0,0,0,1.69-3.2,4.11,4.11,0,0,0,0-2.59,2.15,2.15,0,0,0-1.44-1.37,2.23,2.23,0,0,0-1.73.32,7.09,7.09,0,0,0-2,2.05,21.21,21.21,0,0,0-2.16,4.1,43.11,43.11,0,0,0-2,6.55,8.12,8.12,0,0,0,.07,5.18,6.06,6.06,0,0,0,2.74,3,4.71,4.71,0,0,0,3,0,6.62,6.62,0,0,0,2.59-1.66,12,12,0,0,0,2.09-2.88,23.69,23.69,0,0,0,1.55-3.64,10.93,10.93,0,0,1-2.52,0,9,9,0,0,1-1.87-.43A6.26,6.26,0,0,1,468.9,306.45Z" transform="translate(-391.97 -271.14)"/>
    <path class="doologo" d="M489.56,323.52a4.12,4.12,0,0,1-3.78-1.91,10.61,10.61,0,0,1-1.37-5,33,33,0,0,1,.5-7.24q.68-4.1,1.8-8.5t2.59-8.82q1.47-4.43,2.84-8.24H479.91a11.78,11.78,0,0,1,.65-3.24,4.89,4.89,0,0,1,1.37-1.8l12.67-1.37,1-2.52q.43-1.08.79-1.8a12.35,12.35,0,0,1,5.08-1,8.65,8.65,0,0,1,4.28,1q-.94,1.66-1.73,3.31l12.6-1.37a38.71,38.71,0,0,1-.83,4.82,7.38,7.38,0,0,1-2.63,4H500.79q-2.52,6.55-4.61,14.15a146.54,146.54,0,0,0-3.31,15,6,6,0,0,0-.14,1.08q.22,1.87,1.22,2.05a3,3,0,0,0,2.27-.72,10.1,10.1,0,0,0,2.45-2.7,13.42,13.42,0,0,0,1.76-4,1.18,1.18,0,0,1,.58,0,1.37,1.37,0,0,1,.43.25.91.91,0,0,1,.29.54,23.86,23.86,0,0,1-1.15,5.18,15.78,15.78,0,0,1-2.38,4.5,11.61,11.61,0,0,1-3.67,3.17A10.14,10.14,0,0,1,489.56,323.52Z" transform="translate(-391.97 -271.14)"/>
    <path class="doologo" d="M507.13,323.23q-1,.07-2.12.22a11.38,11.38,0,0,1-2.2.07,6.91,6.91,0,0,1-2.09-.47,5.74,5.74,0,0,1-1.94-1.33,43.43,43.43,0,0,1,.68-8.89q.83-4.79,2.2-9.76t3.06-9.83q1.69-4.86,3.31-9t3-7.27l2.09-4.79a12.82,12.82,0,0,1,5.15-1,9.07,9.07,0,0,1,4.36,1q-1.37,2.38-3,5.4t-3.17,6.52q-1.58,3.49-3.13,7.31t-2.84,7.78a34.23,34.23,0,0,1,5.36-7.06,16.18,16.18,0,0,1,7.31-4.32v-.07a14.25,14.25,0,0,1,5-.11,2.74,2.74,0,0,1,2.12,1.48,4.13,4.13,0,0,1-.11,2.77,27.53,27.53,0,0,1-1.62,3.85,48.24,48.24,0,0,0-3.46,8.35,35.5,35.5,0,0,0-1.37,8.42q0,2.45,1,3a2.26,2.26,0,0,0,2.3-.32,9.8,9.8,0,0,0,2.66-2.7,13.38,13.38,0,0,0,2-4.18,1.2,1.2,0,0,1,.58,0,.79.79,0,0,1,.65.72,20.69,20.69,0,0,1-1.12,5.22,16.39,16.39,0,0,1-2.41,4.54,11.9,11.9,0,0,1-3.71,3.2,10.1,10.1,0,0,1-5,1.22,4.15,4.15,0,0,1-4-2.23,12.64,12.64,0,0,1-1.19-5.69,35.52,35.52,0,0,1,.83-7.6q.86-4.14,2.09-8,0-1.37-1.37-1.08a7.92,7.92,0,0,0-3.17,1.76,21.59,21.59,0,0,0-3.56,3.85,15,15,0,0,0-2.48,5l-.29,1.55q-.15.76-.29,1.55a15.25,15.25,0,0,0-.18,2.23q0,1.44,0,3.06t0,3.17Q507.05,322.29,507.13,323.23Z" transform="translate(-391.97 -271.14)"/>
    <path class="doologo" d="M531.25,308.69a50.29,50.29,0,0,1,1.73-7.42,30.85,30.85,0,0,1,2.92-6.62,18.51,18.51,0,0,1,4.14-4.9,9.4,9.4,0,0,1,5.4-2.16,15.85,15.85,0,0,1,6.34.58,7.13,7.13,0,0,1,5.11,6.3,12.63,12.63,0,0,1-.32,4.32A17.72,17.72,0,0,1,554.9,303a14.82,14.82,0,0,1-2.48,3.42,11.42,11.42,0,0,1-6,3.35,25,25,0,0,1-7,.25,5.93,5.93,0,0,0,1.15,4,6.47,6.47,0,0,0,3.17,2.12,10.41,10.41,0,0,0,4.28.36,14.52,14.52,0,0,0,4.54-1.26,13.43,13.43,0,0,0,3.92-2.74,9.11,9.11,0,0,0,2.38-4,1.19,1.19,0,0,1,.58,0,.79.79,0,0,1,.65.72,15.08,15.08,0,0,1-9,12.89,16.28,16.28,0,0,1-7.24,1.37,14.84,14.84,0,0,1-6.84-1.87,11.81,11.81,0,0,1-4.75-5A12.79,12.79,0,0,1,531.25,308.69ZM548.6,302a7.75,7.75,0,0,0,1.15-2.56,5.57,5.57,0,0,0,.11-2.23,3.52,3.52,0,0,0-.76-1.66,2.31,2.31,0,0,0-1.37-.83,2.88,2.88,0,0,0-1.58.18,4.48,4.48,0,0,0-1.76,1.4,15.31,15.31,0,0,0-1.87,3.1,34.26,34.26,0,0,0-1.91,5.26,10.17,10.17,0,0,0,4.43-.11A6.21,6.21,0,0,0,548.6,302Z" transform="translate(-391.97 -271.14)"/>
    <path class="doologo" d="M565.73,287.81a9.72,9.72,0,0,1,2.59-.25,16.54,16.54,0,0,1,2.74.29,13.34,13.34,0,0,1,2.3.65,2.5,2.5,0,0,1,1.3.9q-2.81,4.82-4.68,8.86a31.83,31.83,0,0,1,5.26-6.44,16.32,16.32,0,0,1,7-3.92v-.07a23.92,23.92,0,0,1,4.25-.29,4.27,4.27,0,0,1,2.59.79,2.35,2.35,0,0,1,.76,2.12,10.23,10.23,0,0,1-1.26,3.64q-.43.79-.83,1.58t-.76,1.58a30.72,30.72,0,0,1,4.86-5.83,15.16,15.16,0,0,1,6.52-3.6,14,14,0,0,1,5-.11,2.71,2.71,0,0,1,2.09,1.48,4.23,4.23,0,0,1-.11,2.81,26.54,26.54,0,0,1-1.62,3.89,49.84,49.84,0,0,0-3.46,8.46,33.48,33.48,0,0,0-1.3,8.39q0,2.52,1,3a2.27,2.27,0,0,0,2.3-.32,9.68,9.68,0,0,0,2.66-2.74,13.85,13.85,0,0,0,2-4.21,1.18,1.18,0,0,1,.58,0,.79.79,0,0,1,.65.72,23.21,23.21,0,0,1-1.19,5.29,16.37,16.37,0,0,1-2.41,4.54,11.9,11.9,0,0,1-3.71,3.2,10.1,10.1,0,0,1-5,1.22,4.15,4.15,0,0,1-4-2.23,12.64,12.64,0,0,1-1.19-5.69,36,36,0,0,1,.83-7.63,82.35,82.35,0,0,1,2.09-8.06q0-1.37-1.3-1.12a7.25,7.25,0,0,0-3,1.69,21.11,21.11,0,0,0-3.42,3.74,16.1,16.1,0,0,0-2.48,5,43.48,43.48,0,0,0-.54,6.55q0,3.46.18,7.78a3.74,3.74,0,0,1-1.19.07q-1.19,0-2.63-.14a18,18,0,0,1-2.7-.47q-1.26-.32-1.48-.83a35.16,35.16,0,0,1-.29-11.45,63.78,63.78,0,0,1,2.38-10.8q0-1.37-1.26-1.12a7.34,7.34,0,0,0-3,1.62,20.61,20.61,0,0,0-3.38,3.6,16.67,16.67,0,0,0-2.56,4.82,43.38,43.38,0,0,0-.65,6.73q-.07,3.49.14,8a3.74,3.74,0,0,1-1.19.07,25.35,25.35,0,0,1-2.59-.14,18.08,18.08,0,0,1-2.66-.47q-1.26-.32-1.48-.83a30.43,30.43,0,0,1-.61-7.13,49.9,49.9,0,0,1,.72-7.16,56.77,56.77,0,0,1,1.58-6.7q1-3.2,2-5.83t2-4.57A25.27,25.27,0,0,1,565.73,287.81Z" transform="translate(-391.97 -271.14)"/>
    <path class="doologo" d="M605.26,308.69a50.29,50.29,0,0,1,1.73-7.42,30.85,30.85,0,0,1,2.92-6.62,18.51,18.51,0,0,1,4.14-4.9,9.4,9.4,0,0,1,5.4-2.16,15.85,15.85,0,0,1,6.34.58,7.13,7.13,0,0,1,5.11,6.3,12.63,12.63,0,0,1-.32,4.32,17.72,17.72,0,0,1-1.66,4.25,14.82,14.82,0,0,1-2.48,3.42,11.42,11.42,0,0,1-6,3.35,25,25,0,0,1-7,.25,5.93,5.93,0,0,0,1.15,4,6.47,6.47,0,0,0,3.17,2.12,10.41,10.41,0,0,0,4.28.36,14.52,14.52,0,0,0,4.54-1.26,13.43,13.43,0,0,0,3.92-2.74,9.11,9.11,0,0,0,2.38-4,1.19,1.19,0,0,1,.58,0,.79.79,0,0,1,.65.72,15.08,15.08,0,0,1-9,12.89,16.28,16.28,0,0,1-7.24,1.37,14.84,14.84,0,0,1-6.84-1.87,11.81,11.81,0,0,1-4.75-5A12.79,12.79,0,0,1,605.26,308.69Zm17.35-6.7a7.75,7.75,0,0,0,1.15-2.56,5.57,5.57,0,0,0,.11-2.23,3.52,3.52,0,0,0-.76-1.66,2.31,2.31,0,0,0-1.37-.83,2.88,2.88,0,0,0-1.58.18,4.48,4.48,0,0,0-1.76,1.4,15.31,15.31,0,0,0-1.87,3.1,34.26,34.26,0,0,0-1.91,5.26,10.17,10.17,0,0,0,4.43-.11A6.21,6.21,0,0,0,622.61,302Z" transform="translate(-391.97 -271.14)"/>
    <path class="doologo" d="M638.17,323.52a13.19,13.19,0,0,1-4.32-.94,10.42,10.42,0,0,1-3.67-2.3,6.12,6.12,0,0,1-1.76-3.42,5.46,5.46,0,0,1,1.4-4.21l9.5-12.89a9.37,9.37,0,0,1-1.87-5.51,6.36,6.36,0,0,1,1.51-4,7.7,7.7,0,0,1,3.53-2.23,9.87,9.87,0,0,1,4.21-.43,6.54,6.54,0,0,1,3.53,1.51,4.52,4.52,0,0,1,1.48,3.64,4.59,4.59,0,0,1-.65,2.34,11.37,11.37,0,0,1-1.44,2,20.33,20.33,0,0,1-2.09,1.94A24.33,24.33,0,0,1,652,306a13.8,13.8,0,0,1,1,6,10.32,10.32,0,0,1-1.62,4.9,13.26,13.26,0,0,1-3.49,3.64,16.38,16.38,0,0,1-4.64,2.27A15.56,15.56,0,0,1,638.17,323.52Zm-4.9-8.21a5.58,5.58,0,0,0,3.24,2,5.49,5.49,0,0,0,3.24-.4,7.37,7.37,0,0,0,2.7-2.16,8.15,8.15,0,0,0,1.58-7.13,7.6,7.6,0,0,0-2.27-3.71Z" transform="translate(-391.97 -271.14)"/>
  </g>
</svg>
